<svg version="1.0" xmlns="http://www.w3.org/2000/svg" width="3961.333" height="3961.333" viewBox="0 0 2971 2971"><path d="M1434.9 13.4c-.2.2-8.3.7-17.9 1-9.6.4-19.3.9-21.5 1-2.2.2-9.2.7-15.5 1-6.3.4-12.6.9-14 1.1-1.4.2-6.8.7-12 1.1-5.2.3-10.3.8-11.2.9-.9.2-4.9.6-9 1-4 .3-10.7 1-14.8 1.5-10.4 1.2-15.7 1.9-21 2.5-71.8 8.3-166.1 28.4-244 51.8-54.2 16.4-125 42.5-164.8 60.8-3.5 1.6-6.5 2.9-6.8 2.9-.2 0-8.8 3.9-19.1 8.6-107.8 49.5-211.2 113.2-305.8 188.3-9.3 7.4-17.2 13.7-17.5 14-.3.3-3.6 3.2-7.5 6.3-3.8 3.1-8.3 6.9-10 8.3-1.6 1.4-5.5 4.7-8.5 7.3-38.7 33.3-81.8 74.6-117.1 112.2-12.2 13.1-15.5 16.7-21.6 23.6-1 1.1-6.3 7.2-11.9 13.5-9.1 10.3-25.1 29.3-34.5 40.9-2 2.5-5.9 7.2-8.6 10.5-18.6 22.6-49.2 64.5-71.4 97.5-38.9 57.8-70.5 112.5-101.4 175.4-6.9 14.1-12.5 25.8-12.5 26 0 .2-2.2 5.2-5 11.1-2.7 5.9-5 10.8-5 11.1 0 .2-1.3 3.2-2.9 6.6-4 8.7-14.9 34.8-20.6 49.3-32.5 82.6-56.9 165.3-73.6 250-5.4 27.7-5.8 29.6-6.3 33-.3 1.6-1.4 8.4-2.5 15s-2.3 14-2.6 16.5c-.3 2.5-1.2 8.5-2 13.5-.7 4.9-1.6 11-1.9 13.5-.3 2.5-1.2 10.1-2.1 17-1.6 13.3-2 17-3 26.5-.3 3.3-.8 7.8-1 10-.3 2.2-.7 7.4-1.1 11.5-.3 4.1-.7 9.1-.9 11-.2 1.9-.6 8.4-1 14.5-.4 6-.8 12-1 13.3-2.7 17.5-2.7 141.4 0 179.7.3 3.8.7 9.9 1 13.5 1.2 16.5 2.8 35.8 4 47 2.2 20.9 3.6 32.6 4.5 38 .5 3 1.2 8 1.5 11 .5 4.6 2.8 19.8 6 40.5.4 2.2 2.5 13.7 4.6 25.5 21.8 118.3 58.9 234.9 110 345.5 7.9 17.2 31.9 65.3 38.9 78 45.3 82.3 82.8 139.9 137.9 211 14.3 18.5 45.2 55.6 57.8 69.5 1.7 1.9 4 4.5 5 5.6 23.8 27.6 71.3 75.5 110.3 111.1 39.4 36.1 93.8 79.8 140 112.5 37.9 26.8 92.5 61.6 125 79.6 2.5 1.3 7.1 4 10.3 5.8 3.2 1.9 6 3.4 6.2 3.4.2 0 3 1.5 6.2 3.4 12.4 7.1 59.2 31 75.3 38.4 3.6 1.6 11 5.1 16.5 7.7 17.3 8.2 64.2 27.9 86 36.3 40.6 15.5 71 25.8 109.5 37.2 12.9 3.9 24.9 7.4 26.5 8 21.5 6.8 107 26.1 139 31.4 12.1 2 28.6 4.7 31.5 5.2 1.9.3 7.6 1.1 12.5 1.9 5 .8 11.3 1.6 14 2 5.4.6 8.5 1 15.5 1.9 6.1.8 10.7 1.4 22 2.6 5.2.6 11.3 1.2 13.5 1.5 2.2.2 6.9.7 10.5 1 12.9 1 19.6 1.6 24 2 2.5.2 9.5.7 15.5 1 6.1.4 12 .8 13.2 1 16.6 2.6 164.6 2.6 181.6 0 1.2-.2 7.4-.6 13.7-1 6.3-.3 12.9-.8 14.5-1 1.7-.2 6.6-.7 11-1 4.4-.3 9.8-.8 12-1 2.2-.3 6-.7 8.5-.9 12.7-1.3 18.1-2 36-4.2 324.9-40.6 629.9-189.8 862.5-421.9 27.6-27.6 34.5-34.7 52-54 5.5-6.1 10.3-11.2 10.6-11.5 1.4-1.3 26.9-31.1 37.5-44 171.6-207.8 282.9-459.6 320.3-724.5 4.8-33.5 9-74 10.6-100.5.4-5.8.8-11.5 1-12.8 2.6-16.6 2.6-169.5 0-183-.1-1-.6-6.9-1-13.2-.3-6.3-.8-12.9-1-14.5-.2-1.7-.7-6.6-1-11-.7-9.1-4.8-46.3-6-54.7-.2-1.8-1.1-8.7-2-15.3-.9-6.6-2.2-15.8-3-20.5-.8-4.7-1.7-10.5-2-13-3.6-25.9-15.9-84.9-25.4-122.5-13.7-53.6-26.4-94.8-45.2-146.4-6.1-16.7-20.3-52.8-23.9-60.6-1.1-2.4-2-4.6-2-4.9 0-.4-8.3-19.3-14.2-32.6-15.6-34.6-42.2-86.8-59.6-117-3-5.2-6.6-11.5-8-14-12.1-21.5-55-89.2-62.5-98.5-.4-.6-6.7-9.3-13.9-19.5-28.7-40.4-63.6-84.1-97.7-122.5-20.7-23.3-34.3-37.7-60.6-64-26-25.9-42.5-41.6-63.5-60-2.5-2.2-4.7-4.3-5-4.6-2-2.2-35-29.9-51-42.8-42.8-34.4-89.3-67.8-134-96.3-15.5-9.8-42.3-26.2-50-30.5-1.9-1.1-10-5.7-18-10.3-8-4.5-18.8-10.5-24-13.2-5.2-2.8-11.4-6.1-13.6-7.4-4.6-2.6-58.2-29.4-58.8-29.4-.2 0-5.7-2.5-12.2-5.6-11.5-5.5-21.3-9.8-33.9-15.1-3.3-1.4-8.2-3.5-11-4.8-9.6-4.3-53.1-21.3-72.5-28.3-60.8-21.9-112.9-37-183-53.2-8.6-1.9-49.1-10.1-56.5-11.3-1.6-.3-9.7-1.7-18-3.1-14.7-2.4-45-7-53-8-2.2-.2-7.6-.9-12-1.5-10.3-1.3-19-2.3-31-3.6-2.2-.2-7.6-.7-12-1-4.4-.3-9.1-.8-10.5-1-1.4-.2-6.8-.7-12-1-5.2-.4-11.3-.9-13.5-1.1-2.2-.1-9.6-.6-16.5-.9-6.9-.4-14.3-.9-16.5-1.2-5-.6-122-1.5-122.6-.9z"/></svg>