<?xml version="1.0" standalone="no"?>
<!DOCTYPE svg PUBLIC "-//W3C//DTD SVG 20010904//EN"
 "http://www.w3.org/TR/2001/REC-SVG-20010904/DTD/svg10.dtd">
<svg version="1.0" xmlns="http://www.w3.org/2000/svg"
 width="2971.000000pt" height="2971.000000pt" viewBox="0 0 2971.000000 2971.000000"
 preserveAspectRatio="xMidYMid meet">
<metadata>
Created by potrace 1.14, written by Peter Selinger 2001-2017
</metadata>
<g transform="translate(0.000000,2971.000000) scale(0.100000,-0.100000)"
fill="#000000" stroke="none">
<path d="M14349 29576 c-2 -2 -83 -7 -179 -10 -96 -4 -193 -9 -215 -10 -22 -2
-92 -7 -155 -10 -63 -4 -126 -9 -140 -11 -14 -2 -68 -7 -120 -11 -52 -3 -103
-8 -112 -9 -9 -2 -49 -6 -90 -10 -40 -3 -107 -10 -148 -15 -104 -12 -157 -19
-210 -25 -718 -83 -1661 -284 -2440 -518 -542 -164 -1250 -425 -1648 -608 -35
-16 -65 -29 -68 -29 -2 0 -88 -39 -191 -86 -1078 -495 -2112 -1132 -3058
-1883 -93 -74 -172 -137 -175 -140 -3 -3 -36 -32 -75 -63 -38 -31 -83 -69
-100 -83 -16 -14 -55 -47 -85 -73 -387 -333 -818 -746 -1171 -1122 -122 -131
-155 -167 -216 -236 -10 -11 -63 -72 -119 -135 -91 -103 -251 -293 -345 -409
-20 -25 -59 -72 -86 -105 -186 -226 -492 -645 -714 -975 -389 -578 -705 -1125
-1014 -1754 -69 -141 -125 -258 -125 -260 0 -2 -22 -52 -50 -111 -27 -59 -50
-108 -50 -111 0 -2 -13 -32 -29 -66 -40 -87 -149 -348 -206 -493 -325 -826
-569 -1653 -736 -2500 -54 -277 -58 -296 -63 -330 -3 -16 -14 -84 -25 -150
-11 -66 -23 -140 -26 -165 -3 -25 -12 -85 -20 -135 -7 -49 -16 -110 -19 -135
-3 -25 -12 -101 -21 -170 -16 -133 -20 -170 -30 -265 -3 -33 -8 -78 -10 -100
-3 -22 -7 -74 -11 -115 -3 -41 -7 -91 -9 -110 -2 -19 -6 -84 -10 -145 -4 -60
-8 -120 -10 -133 -27 -175 -27 -1414 0 -1797 3 -38 7 -99 10 -135 12 -165 28
-358 40 -470 22 -209 36 -326 45 -380 5 -30 12 -80 15 -110 5 -46 28 -198 60
-405 4 -22 25 -137 46 -255 218 -1183 589 -2349 1100 -3455 79 -172 319 -653
389 -780 453 -823 828 -1399 1379 -2110 143 -185 452 -556 578 -695 17 -19 40
-45 50 -56 238 -276 713 -755 1103 -1111 394 -361 938 -798 1400 -1125 379
-268 925 -616 1250 -796 25 -13 71 -40 103 -58 32 -19 60 -34 62 -34 2 0 30
-15 62 -34 124 -71 592 -310 753 -384 36 -16 110 -51 165 -77 173 -82 642
-279 860 -363 406 -155 710 -258 1095 -372 129 -39 249 -74 265 -80 215 -68
1070 -261 1390 -314 121 -20 286 -47 315 -52 19 -3 76 -11 125 -19 50 -8 113
-16 140 -20 54 -6 85 -10 155 -19 61 -8 107 -14 220 -26 52 -6 113 -12 135
-15 22 -2 69 -7 105 -10 129 -10 196 -16 240 -20 25 -2 95 -7 155 -10 61 -4
120 -8 132 -10 166 -26 1646 -26 1816 0 12 2 74 6 137 10 63 3 129 8 145 10
17 2 66 7 110 10 44 3 98 8 120 10 22 3 60 7 85 9 127 13 181 20 360 42 3249
406 6299 1898 8625 4219 276 276 345 347 520 540 55 61 103 112 106 115 14 13
269 311 375 440 1716 2078 2829 4596 3203 7245 48 335 90 740 106 1005 4 58 8
115 10 128 26 166 26 1695 0 1830 -1 10 -6 69 -10 132 -3 63 -8 129 -10 145
-2 17 -7 66 -10 110 -7 91 -48 463 -60 547 -2 18 -11 87 -20 153 -9 66 -22
158 -30 205 -8 47 -17 105 -20 130 -36 259 -159 849 -254 1225 -137 536 -264
948 -452 1464 -61 167 -203 528 -239 606 -11 24 -20 46 -20 49 0 4 -83 193
-142 326 -156 346 -422 868 -596 1170 -30 52 -66 115 -80 140 -121 215 -550
892 -625 985 -4 6 -67 93 -139 195 -287 404 -636 841 -977 1225 -207 233 -343
377 -606 640 -260 259 -425 416 -635 600 -25 22 -47 43 -50 46 -20 22 -350
299 -510 428 -428 344 -893 678 -1340 963 -155 98 -423 262 -500 305 -19 11
-100 57 -180 103 -80 45 -188 105 -240 132 -52 28 -114 61 -136 74 -46 26
-582 294 -588 294 -2 0 -57 25 -122 56 -115 55 -213 98 -339 151 -33 14 -82
35 -110 48 -96 43 -531 213 -725 283 -608 219 -1129 370 -1830 532 -86 19
-491 101 -565 113 -16 3 -97 17 -180 31 -147 24 -450 70 -530 80 -22 2 -76 9
-120 15 -103 13 -190 23 -310 36 -22 2 -76 7 -120 10 -44 3 -91 8 -105 10 -14
2 -68 7 -120 10 -52 4 -113 9 -135 11 -22 1 -96 6 -165 9 -69 4 -143 9 -165
12 -50 6 -1220 15 -1226 9z"/>
</g>
</svg>
